PathFileType	4	(X/Y/Z)	Patient4_TMGait_0pt8_01_right_16.trc.trc
DataRate	CameraRate	NumFrames	NumMarkers	Units	OrigDataRate	OrigDataStartFrame	OrigNumFrames
88.607594936709	88.607594936709	4	33	mm	88.607594936709	106	       141
Frame#	Time	Sacral			L.Shoulder			Chest			R.Shoulder			Neck			R.ASIS			L.ASIS			R.Thigh.Superior			R.Thigh.Lateral			R.Thigh.Inferior			R.Patella			L.Thigh.Superior			L.Thigh.Lateral			L.Thigh.Inferior			L.Patella			L.Shank.Superior			L.Shank.Lateral			L.Shank.Inferior			R.Shank.Superior			R.Shank.Lateral			R.Shank.Inferior			R.Heel			R.Midfoot.Superior			R.Midfoot.Lateral			R.Toe			L.Heel			L.Midfoot.Lateral			L.Midfoot.Superior			L.Toe			L.Elbow			L.Wrist			R.Elbow			R.Wrist			
		X1	Y1	Z1	X2	Y2	Z2	X3	Y3	Z3	X4	Y4	Z4	X5	Y5	Z5	X6	Y6	Z6	X7	Y7	Z7	X8	Y8	Z8	X9	Y9	Z9	X10	Y10	Z10	X11	Y11	Z11	X12	Y12	Z12	X13	Y13	Z13	X14	Y14	Z14	X15	Y15	Z15	X16	Y16	Z16	X17	Y17	Z17	X18	Y18	Z18	X19	Y19	Z19	X20	Y20	Z20	X21	Y21	Z21	X22	Y22	Z22	X23	Y23	Z23	X24	Y24	Z24	X25	Y25	Z25	X26	Y26	Z26	X27	Y27	Z27	X28	Y28	Z28	X29	Y29	Z29	X30	Y30	Z30	X31	Y31	Z31	X32	Y32	Z32	X33	Y33	Z33	

106	18.905000000000	897.920277453288	1012.730697416585	401.065507443938	1081.368767087380	1445.592580482038	234.799896711345	1176.541879236931	1373.181894587066	399.232054794163	1083.369807902390	1438.467164641275	572.012783426663	1055.840272451156	1502.404546207007	392.113445247422	1122.412393335248	954.186405269202	525.141723654419	1116.911579094417	968.547852738797	250.644246725293	1215.068546473571	797.608018725404	499.672154555556	1189.797433363750	675.779196018368	577.008263826380	1281.216823498053	641.821480154887	497.626238617426	1312.134656236931	532.196816377496	524.715093128879	1146.792335236691	746.840496639052	284.561603693217	1043.618227935972	637.438083804573	228.300650104673	1119.936809620313	553.675728335803	291.844978743763	1113.323424926932	486.771866508084	304.838753173813	1086.915103867103	416.797175168418	299.983621066769	993.233761941157	302.394315629416	258.523258187454	1045.143335006074	193.120665551411	331.765331330774	1244.566437496236	449.657480491387	532.322779018998	1128.139962517098	394.814752958997	590.488327912256	1130.895965009891	283.576482569275	543.480690467850	941.935585663603	193.942424724351	511.716022539713	1116.558477571823	160.979625054298	559.651153401091	1006.078821121775	142.057409066844	586.911509709115	1194.424994878393	56.234655117519	585.103231611322	918.083695225331	39.297720835227	388.058656335991	986.442679996062	35.796777471447	302.591679650253	1071.648830530952	96.589188107312	323.617004074953	1197.894072706921	42.626206626011	286.775175854352	1131.209840133340	1105.744277889937	93.605200132189	1331.924175782506	938.305592356595	96.434419935565	999.120118138446	1091.822473936142	665.376705365495	1031.710060784810	831.870529955891	671.648857989747	
107	18.916285714286	896.663255570709	1012.335315737553	400.143575168225	1082.598082924735	1445.270833409897	234.495093926901	1176.256538210218	1372.416841843866	399.594175930711	1081.994724719237	1437.804567783101	571.734211866549	1055.852001274810	1502.007689531733	391.617366813684	1120.606308884195	953.972500012621	525.243157673629	1115.894097920730	967.934959914925	250.724808562974	1214.357777263975	799.343634071737	499.568003699287	1190.748344938037	677.128634957623	577.071711897602	1282.190898484374	644.097252014908	497.579982166849	1314.996687024436	536.213499183696	524.785657646284	1143.442085505568	745.591578440363	284.777641268648	1038.993082116400	637.323256354757	227.954328276093	1113.840078513247	552.687084960345	291.710930715671	1106.374655820957	486.074484211254	304.595483144195	1079.655392531511	416.325550823314	299.724169974107	985.324108771957	302.430496877941	258.107691421599	1036.507611963791	192.900318723004	331.558339668323	1251.280279979971	451.590838008733	532.147241073407	1138.543361715766	390.283368383941	590.723659582982	1147.170347956605	279.548084996450	543.254821354102	963.352256681824	180.219986354045	511.992710385007	1139.702665556540	155.937169024718	559.249721184491	1030.301669379029	131.412212338925	586.767427923955	1222.702060739327	55.147188065216	584.207689112268	908.997628193426	39.382855234770	387.962436789970	977.369720494423	35.752860673034	302.543085383797	1062.615300195182	96.527145553806	323.515628561058	1188.873314486395	42.470073335847	286.762823997815	1138.862536704502	1107.973468040929	91.063421789494	1348.410780931662	951.878212042203	95.815556289839	988.930399380505	1093.789765663242	664.522595693668	1006.904569824180	832.666695320955	672.336235486795	
108	18.927571428571	895.581401817177	1011.813343319263	399.338349372747	1083.811398641685	1444.801707084944	234.317425154508	1176.020955091060	1371.555565707070	400.054714915422	1080.715563574408	1437.110150277836	571.547645482160	1055.906413830801	1501.492105014167	391.215335088644	1118.954310932611	953.563088885392	525.377903070411	1114.992786186534	967.274214286987	250.823761377878	1213.342599787562	800.394750975618	499.561364304548	1190.853985530210	677.808517770819	577.176627922359	1282.366892828766	645.527799837193	497.736881078124	1316.771751881943	539.574217934880	524.967844058379	1140.162604874153	744.280954780899	284.823130530028	1034.276365243211	637.223195808584	227.633941130427	1107.647670636031	551.696919041248	291.524695313158	1099.354033448518	485.405472392408	304.295135245070	1072.297306472827	415.892147574325	299.440248695469	977.321240578766	302.491465428092	257.701768342843	1027.837422235700	192.708374079468	331.340166464956	1257.198239778139	453.128868905602	532.090286307610	1148.746734570851	385.305184283085	591.121025697203	1163.562545393505	275.440344409671	543.230022094867	985.852275581092	166.226658650333	512.369818878580	1163.409433551026	151.052333961149	559.051276745338	1055.465754517561	120.832675763801	586.793066782597	1251.504487492964	54.773104523053	583.719748169147	899.911959801632	39.478089790033	387.861751820610	968.289991698062	35.712924647150	302.494421445900	1053.581265385572	96.470843390925	323.408612508122	1179.838419004473	42.322273830655	286.754050564159	1146.157605111488	1110.111001720340	88.829286701146	1363.828793439260	965.789169077629	95.636335634083	978.645665726853	1096.175808244337	663.864310851089	983.295484570363	834.812031282798	672.870316579046	
109	18.938857142857	894.701138079944	1011.182118594815	398.640684247198	1084.988786638574	1444.195871792022	234.263595036254	1175.829028333902	1370.619908037203	400.608033790615	1079.527693807127	1436.411435357233	571.443337850641	1055.988179723717	1500.866544315731	390.908202387610	1117.476295425327	952.971929152312	525.563866115910	1114.264040096649	966.582903924413	250.944813972541	1212.016993331353	800.723585909199	499.658316864986	1190.085455401906	677.771447753678	577.312903760984	1281.725221441485	646.076091340390	498.068170516157	1317.457752594077	542.221969118728	525.199991036904	1136.951299960727	742.903053797028	284.714814101649	1029.461892050724	637.147016465634	227.347514486916	1101.351701225623	550.711977431743	291.305239806502	1092.247399709779	484.761178622809	303.960442258573	1064.828018144150	415.507607740064	299.143845994350	969.215101616351	302.584973511473	257.316176140867	1019.135162246486	192.552670653296	331.115332090573	1262.284296938623	454.268537039131	532.123214748448	1158.692603006047	379.990763668983	591.645115931384	1179.948956362668	271.390680675469	543.388323700944	1009.332929610488	152.218816796416	512.804203175244	1187.503144857007	146.541545235159	559.068247903271	1081.412800121795	110.575187176467	586.975438683106	1280.583648027879	55.320340650402	583.648853177966	890.823083744950	39.579486154387	387.761169762554	959.201915345915	35.677566208375	302.447902048233	1044.544191867688	96.420228502376	323.299470039133	1170.785434915199	42.185291947527	286.751403097632	1153.099824356484	1112.143247833240	86.906609561667	1378.121240715086	979.925022164003	95.884385525274	968.370996648483	1099.001697519660	663.382716415086	960.989670027203	838.076272750465	673.273125611301	
